<?xml version="1.0" standalone="no"?>
<!DOCTYPE svg PUBLIC "-//W3C//DTD SVG 20010904//EN"
 "http://www.w3.org/TR/2001/REC-SVG-20010904/DTD/svg10.dtd">
<svg version="1.0" xmlns="http://www.w3.org/2000/svg"
 width="512.000000pt" height="512.000000pt" viewBox="0 0 512.000000 512.000000"
 preserveAspectRatio="xMidYMid meet">
<metadata>
Created by potrace 1.14, written by Peter Selinger 2001-2017
</metadata>
<g transform="translate(0.000000,512.000000) scale(0.100000,-0.100000)"
fill="#000000" stroke="none">
<path d="M1360 5049 c-14 -6 -42 -18 -62 -26 -56 -23 -122 -92 -156 -164 l-31
-64 -1 -2218 c0 -1976 2 -2224 15 -2272 41 -141 186 -246 331 -239 76 3 91 7
150 38 86 45 137 105 165 198 18 58 19 144 19 2256 0 2393 3 2256 -56 2346
-64 97 -156 148 -274 153 -41 1 -86 -2 -100 -8z"/>
<path d="M3620 4687 c-3 -3 -20 -7 -38 -10 -79 -13 -177 -95 -221 -187 l-26
-55 -3 -1855 -2 -1855 21 -60 c12 -33 28 -67 35 -76 8 -8 14 -19 14 -23 0 -4
12 -18 28 -32 105 -94 225 -121 357 -79 47 15 72 31 118 76 31 32 67 79 80
106 l22 48 3 1860 c2 1805 1 1862 -17 1912 -50 137 -160 221 -300 231 -37 2
-68 2 -71 -1z"/>
<path d="M2460 3871 c-112 -40 -185 -111 -220 -215 -20 -59 -20 -80 -17 -1115
2 -900 4 -1061 17 -1088 8 -18 18 -33 22 -33 4 0 8 -7 8 -15 0 -9 16 -34 37
-55 179 -194 492 -127 576 124 16 45 17 145 15 1105 l-3 1056 -22 48 c-29 61
-59 97 -118 142 -76 56 -208 77 -295 46z"/>
<path d="M250 3661 c-53 -17 -115 -55 -151 -91 -35 -35 -97 -140 -83 -140 4 0
1 -6 -5 -14 -8 -9 -10 -244 -9 -862 l3 -849 27 -56 c36 -73 99 -136 168 -167
44 -20 71 -26 135 -26 44 0 89 3 100 8 11 5 22 10 25 11 51 12 127 75 165 135
55 87 53 59 51 966 l-1 839 -26 56 c-32 67 -94 131 -163 166 -40 21 -68 27
-131 29 -44 2 -91 0 -105 -5z"/>
<path d="M4698 3414 c-102 -26 -179 -92 -227 -194 l-26 -55 0 -590 c0 -324 3
-604 6 -621 28 -136 177 -254 323 -254 28 -1 58 1 66 3 8 3 29 8 45 12 49 11
137 78 173 129 63 94 63 91 60 742 l-3 589 -29 58 c-74 145 -235 220 -388 181z"/>
</g>
</svg>
