<?xml version="1.0" standalone="no"?>
<!DOCTYPE svg PUBLIC "-//W3C//DTD SVG 20010904//EN"
 "http://www.w3.org/TR/2001/REC-SVG-20010904/DTD/svg10.dtd">
<svg version="1.0" xmlns="http://www.w3.org/2000/svg"
 width="1024.000000pt" height="1024.000000pt" viewBox="0 0 1024.000000 1024.000000"
 preserveAspectRatio="xMidYMid meet">
<metadata>
Created by potrace 1.14, written by Peter Selinger 2001-2017
</metadata>
<g transform="translate(0.000000,1024.000000) scale(0.100000,-0.100000)"
fill="#000000" stroke="none">
<path d="M3440 9141 c-82 -24 -133 -55 -194 -116 -60 -60 -109 -152 -121 -225
-9 -53 -9 -7237 0 -7293 9 -62 58 -158 109 -214 84 -93 202 -145 327 -145 88
1 180 28 245 73 99 68 153 146 192 279 3 8 5 1649 7 3646 l1 3631 -24 76 c-40
127 -143 233 -269 279 -75 28 -197 31 -273 9z"/>
<path d="M6605 8542 c-3 -3 -17 -7 -31 -8 -70 -8 -254 -132 -254 -172 0 -7 -4
-12 -9 -12 -13 0 -64 -121 -66 -156 -1 -17 -4 -35 -7 -40 -6 -11 -2 -6013 4
-6034 2 -8 8 -30 12 -49 22 -94 113 -204 211 -257 271 -145 606 19 652 321 9
55 8 6001 -1 6045 -28 146 -133 279 -261 331 -32 13 -37 15 -75 24 -33 8 -168
14 -175 7z"/>
<path d="M5013 7364 c-151 -39 -265 -146 -319 -299 -16 -47 -17 -161 -19
-1885 0 -1321 3 -1852 11 -1895 29 -159 153 -291 321 -343 77 -25 250 -6 310
33 13 9 23 13 23 10 0 -7 18 7 85 68 61 55 108 137 127 222 11 50 13 376 12
1890 -1 1007 -5 1846 -9 1865 -12 61 -64 157 -113 208 -65 68 -131 106 -222
130 -41 10 -161 8 -207 -4z"/>
<path d="M1930 7206 c-3 -3 -21 -8 -40 -11 -150 -26 -304 -196 -326 -360 -8
-64 -8 -271 1 -285 5 -7 4 -11 -1 -7 -10 6 -11 -2870 -1 -2897 3 -8 3 -17 -1
-20 -8 -5 -6 -102 3 -151 12 -66 17 -82 43 -135 42 -85 122 -163 212 -207 68
-33 205 -47 278 -29 12 3 31 8 42 10 41 9 125 62 175 111 54 52 85 103 115
191 17 49 18 142 16 1740 -1 929 -5 1700 -8 1715 -10 50 -71 158 -114 203 -85
86 -185 130 -309 135 -44 1 -83 0 -85 -3z"/>
<path d="M8186 7042 c-2 -2 -20 -5 -41 -8 -20 -2 -53 -12 -73 -21 -20 -9 -40
-15 -44 -15 -5 1 -8 -2 -8 -7 0 -5 -9 -13 -20 -16 -12 -4 -46 -31 -76 -62 -56
-55 -109 -148 -122 -215 -12 -57 -7 -3069 5 -3109 18 -64 57 -132 103 -182 46
-50 114 -100 137 -100 7 0 13 -4 13 -8 0 -4 12 -10 28 -14 15 -5 34 -10 42
-12 32 -9 177 -9 210 0 49 13 135 53 160 74 100 83 164 193 176 298 9 89 11
196 2 228 -3 15 -4 27 0 27 9 0 7 694 -2 709 -4 6 -4 11 1 11 9 0 8 214 -2
229 -3 6 -3 11 2 11 10 0 9 373 -1 389 -4 6 -4 11 1 11 9 0 8 214 -2 229 -3 6
-3 11 2 11 10 0 9 693 -1 709 -4 6 -4 11 1 11 9 0 9 317 0 326 -3 4 -3 14 1
23 5 9 7 25 6 36 -16 167 -66 259 -200 365 -26 21 -111 56 -159 65 -43 9 -133
13 -139 7z"/>
<path d="M390 5762 c-43 -5 -134 -35 -151 -49 -8 -7 -20 -13 -26 -13 -10 0
-108 -91 -133 -125 -22 -29 -49 -87 -68 -145 -3 -8 -6 -123 -8 -255 -4 -271 3
-322 57 -411 49 -80 96 -126 179 -171 84 -47 215 -63 308 -38 28 7 53 10 56 7
3 -3 6 0 6 6 0 7 6 12 13 12 32 0 138 84 177 140 82 116 91 161 87 454 -2 133
-6 251 -9 263 -29 102 -133 230 -223 275 -81 41 -225 69 -225 44 0 -7 -3 -7
-8 -1 -4 6 -18 9 -32 7z"/>
<path d="M9690 5754 c-150 -47 -256 -140 -311 -274 -21 -51 -23 -72 -26 -306
-3 -228 -1 -257 17 -315 105 -340 544 -429 767 -154 46 57 82 129 92 185 8 45
8 497 0 530 -30 125 -125 243 -239 297 -87 42 -189 59 -238 41 -15 -5 -21 -4
-17 2 3 6 5 10 3 9 -2 -1 -23 -7 -48 -15z"/>
</g>
</svg>
