<?xml version="1.0" standalone="no"?>
<!DOCTYPE svg PUBLIC "-//W3C//DTD SVG 20010904//EN"
 "http://www.w3.org/TR/2001/REC-SVG-20010904/DTD/svg10.dtd">
<svg version="1.0" xmlns="http://www.w3.org/2000/svg"
 width="700.000000pt" height="700.000000pt" viewBox="0 0 700.000000 700.000000"
 preserveAspectRatio="xMidYMid meet">
<metadata>
Created by potrace 1.14, written by Peter Selinger 2001-2017
</metadata>
<g transform="translate(0.000000,700.000000) scale(0.100000,-0.100000)"
fill="#000000" stroke="none">
<path d="M4359 6765 c-74 -20 -114 -42 -162 -89 -48 -46 -89 -117 -103 -176
-13 -58 -12 -5936 1 -5995 45 -199 230 -314 430 -268 110 26 210 114 251 224
16 41 17 256 19 3019 1 1636 -3 2992 -7 3014 -26 120 -123 228 -239 265 -53
17 -139 20 -190 6z"/>
<path d="M3415 6229 c-112 -14 -212 -88 -266 -196 l-34 -68 0 -2465 0 -2465
29 -60 c67 -135 189 -211 337 -207 115 3 212 58 287 164 8 11 23 45 34 76 20
57 20 77 20 2488 0 2710 6 2492 -69 2591 -46 60 -66 77 -130 109 -60 30 -137
42 -208 33z"/>
<path d="M1458 5900 c-107 -33 -179 -97 -226 -199 l-26 -56 0 -2140 0 -2140
22 -57 c13 -31 43 -80 68 -107 152 -170 432 -149 556 40 66 102 62 -55 62
2269 0 2043 -1 2117 -19 2165 -68 183 -259 281 -437 225z"/>
<path d="M2412 5264 c-75 -20 -109 -40 -167 -98 -35 -35 -60 -71 -75 -111
l-24 -60 -1 -1470 c-1 -808 2 -1490 7 -1514 21 -114 109 -221 216 -262 214
-81 446 52 480 275 4 28 7 708 6 1511 -1 1390 -2 1462 -19 1505 -72 177 -249
271 -423 224z"/>
<path d="M5303 5258 c-34 -10 -81 -33 -105 -51 -53 -41 -114 -120 -123 -161
-4 -17 -10 -38 -13 -46 -10 -28 -10 -2937 0 -2992 36 -197 238 -323 436 -272
87 23 167 80 208 149 61 104 57 -10 58 1590 1 803 -2 1483 -7 1510 -36 208
-249 337 -454 273z"/>
<path d="M515 4686 c-106 -33 -192 -120 -229 -231 -15 -43 -17 -139 -16 -949
0 -496 4 -917 9 -936 32 -137 151 -246 294 -268 60 -9 152 5 212 34 56 26 133
107 163 171 l27 58 0 935 0 935 -26 55 c-38 80 -91 135 -169 173 -58 30 -77
34 -146 35 -43 1 -97 -5 -119 -12z"/>
<path d="M6304 4580 c-90 -19 -180 -82 -229 -160 -57 -91 -55 -63 -53 -939 2
-606 6 -811 15 -826 7 -11 19 -36 28 -56 21 -49 98 -123 152 -149 82 -38 156
-46 249 -26 76 16 177 91 213 157 54 102 52 63 52 909 -1 432 -3 799 -6 815
-16 81 -78 172 -152 223 -69 48 -184 70 -269 52z"/>
</g>
</svg>
